<svg id="Layer_1" data-name="Layer 1" xmlns="http://www.w3.org/2000/svg" viewBox="0 0 3930.99 719.82"><defs><style>.cls-1,.cls-9{opacity:0.2;}.cls-1,.cls-5{font-size:569.52px;stroke-miterlimit:10;font-family:VarelaRound-Regular, Varela Round;}.cls-1{fill:#0277bd;stroke:#3c8bb6;stroke-width:14px;letter-spacing:-0.06em;}.cls-2{letter-spacing:-0.08em;}.cls-3{letter-spacing:-0.07em;}.cls-4{letter-spacing:-0.08em;}.cls-11,.cls-5{fill:#fff;}.cls-5{stroke:#fff;stroke-width:23px;letter-spacing:-0.06em;}.cls-6{letter-spacing:-0.07em;}.cls-7{letter-spacing:-0.06em;}.cls-8{letter-spacing:-0.07em;}.cls-10{fill:#0097a7;}</style></defs><title>logo-white</title><text class="cls-1" transform="translate(522.09 549.94)">Lig<tspan class="cls-2" x="718.15" y="0">h</tspan><tspan x="1021.13" y="0">tnin</tspan><tspan class="cls-3" x="1926.08" y="0">g</tspan><tspan x="2243.31" y="0">Ch</tspan><tspan class="cls-4" x="2911.91" y="0">a</tspan><tspan x="3188.13" y="0">t</tspan></text><text class="cls-5" transform="translate(480.09 514.94)">Lig<tspan class="cls-6" x="726.69" y="0">h</tspan><tspan class="cls-7" x="1032.52" y="0">tnin</tspan><tspan class="cls-8" x="1948.86" y="0">g</tspan><tspan x="2268.94" y="0">Ch</tspan><tspan class="cls-6" x="2943.24" y="0">a</tspan><tspan x="3222.3" y="0">t</tspan></text><g class="cls-9"><path class="cls-10" d="M509.75,420.25a42,42,0,0,0-15.06-14.45,40.86,40.86,0,0,0-20.11-5.3H373.15l28.43-65.93L455.1,206.05a41.68,41.68,0,0,0-18.68-52.75,41.27,41.27,0,0,0-19.56-4.94H282.1a41.18,41.18,0,0,0-24.79,8.31,41.76,41.76,0,0,0-14.94,21.56l-33,134.33L151.23,509.49a41.51,41.51,0,0,0,6.52,36.62,40.84,40.84,0,0,0,14.63,12.25A41.71,41.71,0,0,0,191,562.71H299.59L269.64,678.43l-27,110.44a33.15,33.15,0,0,0,5.78,21.68,32.79,32.79,0,0,0,56.49-4.23l95.87-163.66,111-182a41.83,41.83,0,0,0-2-40.39Z" transform="translate(-101.01 -123.16)"/></g><path class="cls-11" d="M461.25,395.05a42.07,42.07,0,0,0-15.06-14.45,40.9,40.9,0,0,0-20.11-5.31H324.64l28.44-65.92,53.51-128.52a41.67,41.67,0,0,0-18.67-52.75,41.15,41.15,0,0,0-19.56-4.94H233.6a41.15,41.15,0,0,0-24.79,8.31A41.78,41.78,0,0,0,193.86,153l-33,134.33L102.72,484.29a41.48,41.48,0,0,0,6.53,36.62,40.94,40.94,0,0,0,14.63,12.25,41.7,41.7,0,0,0,18.58,4.34H251.09l-30,115.73L194.08,763.67a33.27,33.27,0,0,0,5.78,21.68,32.78,32.78,0,0,0,56.49-4.24l95.88-163.65,111-182a41.9,41.9,0,0,0-2-40.39Z" transform="translate(-101.01 -123.16)"/></svg>